<?xml version="1.0" encoding="utf-8"?>
<!-- Generator: Adobe Illustrator 16.2.1, SVG Export Plug-In . SVG Version: 6.00 Build 0)  -->
<!DOCTYPE svg PUBLIC "-//W3C//DTD SVG 1.1//EN" "http://www.w3.org/Graphics/SVG/1.1/DTD/svg11.dtd">
<svg version="1.1" id="Layer_1" xmlns="http://www.w3.org/2000/svg" xmlns:xlink="http://www.w3.org/1999/xlink" x="0px" y="0px"
	 width="90px" height="23px" viewBox="0 0 90 23" enable-background="new 0 0 90 23" xml:space="preserve">
<g>
	<path fill="#454545" d="M60.046,0"/>
	<path fill="#454545" d="M32.214,0h4.518l6.982,17.455L50.695,0h4.519l-9.446,23H41.66L32.214,0z"/>
	<path fill="#454545" d="M8.393,4.107H1V0.046h18.893v4.061H12.5V23H8.393V4.107z"/>
	<path fill="#454545" d="M24,0h4.107v23H24V0z"/>
	<path fill="#454545" d="M59.32,0h4.106v23H59.32V0z"/>
	<path fill="#454545" d="M75.749,11.5L67.535,0h4.518l5.955,8.419L83.964,0h4.519l-8.215,11.5L88.48,23h-4.518l-5.956-8.419
		L72.053,23h-4.518L75.749,11.5z"/>
	<polygon fill="#2CBC65" points="40.839,0 43.714,7.188 46.589,0 43,0 	"/>
	<path fill="#454545" d="M46.568,13.225"/>
</g>
</svg>
